# Blender v2.92.0 OBJ File: 'arm-default.blend'
# www.blender.org
mtllib arm-holding.mtl
o Cube_Cube.002
v 0.013198 1.508724 -2.605210
v -0.958177 1.508724 -2.605210
v 0.013198 1.299523 -4.605209
v -0.958177 1.299523 -4.605209
v 0.013198 -1.329062 -2.605210
v -0.958177 -1.329062 -2.605210
v 0.013198 -1.119254 -4.605209
v -0.958177 -1.119254 -4.605209
v 0.149111 -0.309490 -4.605209
v 0.149111 0.496769 -4.605209
v -1.094090 0.496769 -4.605209
v -1.094090 -0.309490 -4.605209
v 0.149111 0.566907 -2.605210
v 0.149111 -0.379021 -2.605210
v -1.094090 -0.379022 -2.605210
v -1.094090 0.566907 -2.605210
v 0.013198 1.811534 -1.866749
v -0.958177 1.811534 -1.866749
v -0.958177 -1.667819 -1.670710
v 0.013198 -1.667819 -1.670710
v 0.149111 -0.500356 -1.670710
v -1.094090 0.662053 -1.670710
v 0.149111 0.662053 -1.670710
v -1.094090 -0.500357 -1.670710
v 0.013198 1.537849 -0.622267
v -0.958177 1.537850 -0.622267
v -0.958177 -1.385441 -0.622267
v 0.013198 -1.385441 -0.622267
v 0.149111 -0.406776 -0.622267
v -1.094090 0.567654 -0.622267
v 0.149111 0.567654 -0.622267
v -1.094090 -0.406776 -0.622267
v 0.013198 1.537849 0.322364
v -0.958177 1.537850 0.322364
v -0.958177 -1.385441 0.322364
v 0.013198 -1.385441 0.322364
v 0.149111 -0.406776 0.322364
v -1.094090 0.567654 0.322364
v 0.149111 0.567654 0.322364
v -1.094090 -0.406776 0.322364
v 0.013198 1.455586 1.026196
v -0.958177 1.455586 1.026196
v -0.958177 -1.325180 1.390958
v 0.013198 -1.325180 1.390958
v 0.149111 -0.383191 1.390958
v -1.094090 0.543864 1.390958
v 0.149111 0.543864 1.390958
v -1.094090 -0.383191 1.390958
v -0.958177 -1.530378 0.233098
v 0.013198 -1.530378 0.233098
v 0.013198 1.869854 -0.524644
v -0.958177 1.869854 -0.524644
v 0.142189 1.510003 1.862149
v -0.637491 1.510003 2.152280
v -0.714313 0.672239 2.279593
v 0.283549 0.672239 1.908272
v 0.419263 0.536473 1.371421
v 0.419263 -0.290726 1.371421
v 0.961300 -0.290726 2.257543
v 0.961300 0.536473 2.257543
v 0.278722 -1.289671 2.362345
v 0.601745 -1.289671 1.605053
v 0.667801 -0.447285 1.507991
v 0.254384 -0.447285 2.477201
v -0.013231 2.627291 -0.430994
v -0.984606 2.627291 -0.430994
v -0.013231 1.786219 0.142672
v -0.984606 1.786219 0.142672
v -0.174256 2.475870 1.105662
v -0.823581 2.475870 1.105662
v -0.174256 1.913648 1.489135
v -0.823581 1.913647 1.489135
v 0.300919 1.643595 2.458329
v -0.099219 1.643595 3.045620
v -0.081785 0.839186 3.177818
v 0.430328 0.839186 2.426180
v 1.250741 0.575504 0.756892
v 1.286710 -0.247011 0.730531
v 1.902175 -0.240582 1.369704
v 1.866207 0.581933 1.396065
v 1.440996 -1.315716 1.716645
v 0.890303 -1.315715 1.279187
v 0.826712 -0.511868 1.201034
v 1.531508 -0.511868 1.760908
v 1.130061 1.738007 3.079141
v 0.781940 1.738007 3.590085
v 0.844710 0.980606 3.646521
v 1.215724 0.980606 3.101977
v 1.604194 0.582330 -0.080403
v 1.604194 -0.106529 -0.080403
v 2.269673 -0.106529 0.084744
v 2.269673 0.582330 0.084744
v 2.167488 -1.302675 0.690568
v 1.725439 -1.302675 0.339414
v 1.675283 -0.604339 0.275560
v 2.220526 -0.604339 0.708688
v -0.958177 -2.066855 -0.545548
v 0.013198 -2.066855 -0.545548
v -0.958177 -2.186684 0.282710
v 0.013198 -2.186684 0.282710
v -0.958177 -2.316630 1.373336
v 0.013198 -2.316630 1.373336
v 0.033770 -1.553894 2.357198
v 0.348367 -1.553894 1.591095
v -0.001214 -2.295090 2.342832
v 0.313383 -2.295090 1.576729
v 1.692158 -1.653237 1.549102
v 1.019054 -1.653237 1.235291
v 1.676940 -2.335892 1.581745
v 1.003835 -2.335892 1.267933
v 1.992751 -1.816143 0.614432
v 1.541709 -1.816143 0.404150
v 1.981655 -2.313841 0.638229
v 1.530614 -2.313841 0.427947
v 0.013198 1.299523 -6.056657
v -0.958177 1.299523 -6.056657
v 0.013198 -1.119254 -6.056657
v -0.958177 -1.119254 -6.056657
v 0.149111 -0.309490 -6.056657
v 0.149111 0.496769 -6.056657
v -1.094090 0.496769 -6.056657
v -1.094090 -0.309490 -6.056657
v 0.207664 1.783052 -18.377083
v -1.152643 1.783052 -18.377083
v 0.207664 -1.604185 -18.377083
v -1.152642 -1.604185 -18.377083
v 0.397996 -0.470199 -18.377083
v 0.397996 0.658880 -18.377083
v -1.342974 0.658880 -18.377083
v -1.342974 -0.470199 -18.377083
vt 0.625000 0.000000
vt 0.375000 0.250000
vt 0.375000 0.000000
vt 0.207971 0.500000
vt 0.291304 0.500000
vt 0.291304 0.500000
vt 0.625000 0.500000
vt 0.375000 0.750000
vt 0.375000 0.500000
vt 0.625000 0.750000
vt 0.708696 0.750000
vt 0.625000 0.750000
vt 0.291304 0.750000
vt 0.875000 0.500000
vt 0.792029 0.750000
vt 0.792029 0.500000
vt 0.708696 0.750000
vt 0.708696 0.500000
vt 0.125000 0.500000
vt 0.207971 0.750000
vt 0.125000 0.750000
vt 0.375000 0.750000
vt 0.875000 0.750000
vt 0.792029 0.750000
vt 0.207971 0.500000
vt 0.792029 0.500000
vt 0.875000 0.750000
vt 0.792029 0.750000
vt 0.291304 0.750000
vt 0.207971 0.750000
vt 0.207971 0.750000
vt 0.708696 0.750000
vt 0.125000 0.750000
vt 0.625000 0.000000
vt 0.375000 0.000000
vt 0.625000 0.000000
vt 0.625000 0.000000
vt 0.375000 0.750000
vt 0.291304 0.750000
vt 0.291304 0.750000
vt 0.125000 0.750000
vt 0.125000 0.750000
vt 0.625000 0.750000
vt 0.375000 0.000000
vt 0.375000 0.750000
vt 0.291304 0.750000
vt 0.207971 0.750000
vt 0.125000 0.750000
vt 0.708696 0.750000
vt 0.625000 0.750000
vt 0.625000 0.750000
vt 0.792029 0.750000
vt 0.375000 0.750000
vt 0.792029 0.750000
vt 0.875000 0.750000
vt 0.792029 0.750000
vt 0.625000 0.750000
vt 0.375000 0.750000
vt 0.207971 0.750000
vt 0.207971 0.750000
vt 0.375000 0.000000
vt 0.625000 0.000000
vt 0.708696 0.750000
vt 0.875000 0.750000
vt 0.625000 0.750000
vt 0.375000 0.750000
vt 0.375000 0.750000
vt 0.000000 0.000000
vt 0.000000 0.000000
vt 0.000000 0.000000
vt 0.000000 0.000000
vt 0.000000 0.000000
vt 0.000000 0.000000
vt 0.000000 0.000000
vt 0.000000 0.000000
vt 0.000000 0.000000
vt 0.625000 0.000000
vt 0.375000 1.000000
vt 0.375000 0.000000
vt 0.000000 0.000000
vt 0.000000 0.000000
vt 0.000000 0.000000
vt 0.000000 0.000000
vt 0.000000 0.000000
vt 0.792029 0.750000
vt 0.125000 0.750000
vt 0.375000 0.000000
vt 0.625000 0.000000
vt 0.625000 0.917029
vt 0.375000 0.917029
vt 0.375000 0.917029
vt 0.708696 0.750000
vt 0.625000 0.750000
vt 0.625000 0.833696
vt 0.375000 0.833696
vt 0.375000 0.833696
vt 0.625000 0.917029
vt 0.792029 0.750000
vt 0.708696 0.750000
vt 0.375000 0.917029
vt 0.625000 0.917029
vt 0.375000 0.833696
vt 0.625000 0.833696
vt 0.708696 0.750000
vt 0.291304 0.750000
vt 0.000000 0.000000
vt 0.000000 0.000000
vt 0.000000 0.000000
vt 0.625000 0.000000
vt 0.000000 0.000000
vt 0.375000 0.000000
vt 0.625000 0.000000
vt 0.375000 0.000000
vt 0.375000 0.000000
vt 0.625000 0.000000
vt 0.000000 0.000000
vt 0.000000 0.000000
vt 0.375000 0.000000
vt 0.625000 0.000000
vt 0.375000 0.750000
vt 0.291304 0.750000
vt 0.291304 0.750000
vt 0.125000 0.750000
vt 0.207971 0.750000
vt 0.125000 0.750000
vt 0.792029 0.750000
vt 0.708696 0.750000
vt 0.708696 0.750000
vt 0.291304 0.750000
vt 0.207971 0.750000
vt 0.625000 0.833696
vt 0.207971 0.750000
vt 0.625000 0.917029
vt 0.375000 0.917029
vt 0.625000 0.833696
vt 0.375000 0.833696
vt 0.375000 0.000000
vt 0.625000 0.000000
vt 0.625000 0.917029
vt 0.375000 1.000000
vt 0.375000 0.917029
vt 0.625000 0.833696
vt 0.375000 0.917029
vt 0.375000 0.833696
vt 0.375000 0.750000
vt 0.625000 0.833696
vt 0.375000 0.833696
vt 0.625000 0.833696
vt 0.708696 0.750000
vt 0.625000 0.750000
vt 0.375000 0.000000
vt 0.625000 0.000000
vt 0.375000 0.917029
vt 0.625000 0.917029
vt 0.291304 0.750000
vt 0.207971 0.750000
vt 0.375000 0.833696
vt 0.875000 0.750000
vt 0.792029 0.750000
vt 0.375000 0.750000
vt 0.625000 0.750000
vt 0.625000 0.750000
vt 0.000000 0.000000
vt 0.000000 0.000000
vt 0.000000 0.000000
vt 0.000000 0.000000
vt 0.375000 0.750000
vt 0.000000 0.000000
vt 0.000000 0.000000
vt 0.000000 0.000000
vt 0.000000 0.000000
vt 0.000000 0.000000
vt 0.000000 0.000000
vt 0.000000 0.000000
vt 0.000000 0.000000
vt 0.625000 0.750000
vt 0.625000 0.750000
vt 0.375000 0.750000
vt 0.000000 0.000000
vt 0.000000 0.000000
vt 0.000000 0.000000
vt 0.375000 0.750000
vt 0.625000 0.750000
vt 0.000000 0.000000
vt 0.000000 0.000000
vt 0.625000 0.750000
vt 0.375000 0.750000
vt 0.625000 0.750000
vt 0.375000 0.750000
vt 0.625000 0.750000
vt 0.375000 0.750000
vt 0.000000 0.000000
vt 0.000000 0.000000
vt 0.625000 0.750000
vt 0.625000 0.500000
vt 0.708696 0.500000
vt 0.708696 0.500000
vt 0.375000 0.500000
vt 0.291304 0.500000
vt 0.375000 0.500000
vt 0.875000 0.500000
vt 0.792029 0.500000
vt 0.875000 0.500000
vt 0.625000 0.250000
vt 0.375000 0.250000
vt 0.625000 0.416304
vt 0.375000 0.416304
vt 0.625000 0.250000
vt 0.375000 0.332971
vt 0.375000 0.250000
vt 0.625000 0.332971
vt 0.625000 0.250000
vt 0.625000 0.500000
vt 0.125000 0.500000
vt 0.207971 0.500000
vt 0.875000 0.750000
vt 0.875000 0.750000
vt 0.000000 0.000000
vt 0.000000 0.000000
vt 0.625000 1.000000
vt 0.000000 0.000000
vt 0.000000 0.000000
vt 0.000000 0.000000
vt 0.207971 0.750000
vt 0.625000 0.917029
vt 0.000000 0.000000
vt 0.792029 0.750000
vt 0.375000 0.000000
vt 0.625000 1.000000
vt 0.291304 0.750000
vt 0.875000 0.750000
vt 0.375000 0.750000
vt 0.000000 0.000000
vt 0.125000 0.500000
vn 0.0000 -0.9946 0.1040
vn -1.0000 -0.0000 0.0000
vn 0.0000 0.9945 0.1043
vn 0.9924 0.1155 0.0419
vn -0.9862 0.1655 0.0058
vn 0.9860 -0.1669 0.0059
vn 0.9898 0.1416 0.0149
vn 1.0000 0.0000 0.0000
vn -0.9896 -0.1428 0.0149
vn 0.0000 0.9401 0.3408
vn 0.9896 -0.1428 0.0145
vn -0.9860 -0.1669 0.0000
vn 0.9903 -0.1387 -0.0125
vn -0.9929 -0.1097 0.0450
vn 0.0000 -0.9252 0.3794
vn -0.9898 0.1416 0.0184
vn -0.0000 -1.0000 0.0000
vn -0.9905 0.1376 0.0000
vn -0.9903 -0.1387 0.0000
vn 0.0000 0.9656 -0.2601
vn 0.9928 0.1156 -0.0311
vn -0.9922 -0.1219 -0.0268
vn -0.9904 0.1375 -0.0123
vn -0.0000 -0.9767 -0.2148
vn -0.9897 0.1428 -0.0032
vn -0.9902 -0.1387 -0.0162
vn 0.9905 0.1376 -0.0078
vn 0.9903 -0.1387 0.0000
vn 0.0000 1.0000 0.0000
vn 0.9905 0.1376 0.0000
vn 0.9176 -0.1406 -0.3718
vn -0.0521 0.9984 -0.0222
vn 0.0721 0.0000 0.9974
vn -0.0000 -0.9932 -0.1161
vn 0.9889 -0.1487 -0.0033
vn 0.0000 0.9984 -0.0563
vn 0.0000 0.0754 0.9972
vn 0.0000 -0.9847 0.1745
vn 0.9986 0.0295 0.0432
vn 0.0000 0.9661 0.2581
vn 0.8209 -0.1586 -0.5486
vn -0.9840 -0.0838 0.1573
vn 0.0000 -0.9988 0.0483
vn 0.0000 0.9706 -0.2409
vn -0.4813 0.1021 -0.8706
vn 0.0000 -0.2067 -0.9784
vn 0.0000 -1.0000 -0.0085
vn 0.3885 0.0000 -0.9214
vn 0.0317 -0.9993 -0.0194
vn -0.0353 -0.9993 -0.0151
vn 0.6106 0.1243 -0.7821
vn -0.2163 0.0312 0.9758
vn -0.9909 0.0759 0.1113
vn -0.0000 -0.9922 -0.1244
vn -0.9994 -0.0351 0.0015
vn 0.0000 0.8695 -0.4940
vn -0.0000 0.5635 0.8261
vn 0.0000 0.9952 0.0981
vn 0.9909 0.0759 0.1113
vn 0.0000 -0.9956 0.0942
vn 0.7376 0.1229 0.6640
vn -0.5956 -0.0432 0.8021
vn -0.9600 -0.0331 -0.2780
vn 0.5944 0.0000 0.8042
vn -0.0663 -0.9974 -0.0283
vn -0.9437 -0.1633 0.2878
vn -0.6863 0.0000 -0.7273
vn 0.1711 0.9825 0.0730
vn -0.3098 0.9271 -0.2111
vn -0.0347 0.9992 0.0212
vn 0.8865 -0.0162 0.4624
vn 0.0451 -0.9916 0.1211
vn -0.8214 -0.1098 -0.5597
vn -0.2409 0.0000 0.9706
vn -0.6218 0.0269 0.7827
vn -0.1332 0.9840 0.1183
vn -0.1125 0.9907 -0.0766
vn -0.8142 0.0768 -0.5755
vn 0.0751 -0.9959 0.0512
vn 0.0082 -1.0000 0.0022
vn 0.9208 0.0278 0.3889
vn -0.0458 -0.9973 0.0577
vn 0.4635 -0.1339 -0.8759
vn -0.0065 0.9999 0.0081
vn 0.0000 -0.9897 -0.1432
vn 0.0000 -0.9425 -0.3343
vn 0.0000 0.9930 0.1183
vn -0.5202 -0.0152 0.8539
vn -0.4135 -0.0343 -0.9099
vn 0.0000 -0.9731 -0.2303
vn 0.0000 0.9944 -0.1053
vn 0.7118 -0.0200 -0.7021
vn -0.9516 0.0065 -0.3072
vn -0.0746 -0.9967 -0.0307
vn 0.4638 -0.0390 0.8851
vn 0.0722 0.9970 0.0296
vn -0.4220 0.0527 0.9051
vn -0.0697 -0.9863 0.1495
vn 0.8471 0.0065 0.5314
vn -0.0095 0.9997 0.0203
vn 0.9860 0.1655 -0.0221
vn -0.9860 0.1655 -0.0221
vn 0.9857 -0.1669 -0.0221
vn 0.9862 0.1655 0.0000
vn 0.9860 -0.1669 0.0000
vn -0.9862 0.1655 0.0000
vn -0.0000 0.0000 1.0000
vn 0.0000 -0.9992 -0.0392
vn 0.9998 0.0000 -0.0202
vn -0.9998 -0.0000 -0.0202
vn 0.0000 0.9992 -0.0393
vn -0.9857 -0.1669 -0.0221
vn 0.9898 0.1416 0.0184
vn -0.9898 0.1416 0.0149
vn 0.9896 -0.1428 0.0149
vn 0.9862 0.1655 0.0058
vn -0.9860 -0.1669 0.0059
vn 0.9929 -0.1097 0.0450
vn 0.9922 -0.1219 -0.0268
vn -0.9896 -0.1428 0.0145
vn -0.9924 0.1155 0.0419
vn 0.9904 0.1375 -0.0123
vn -0.9903 -0.1387 -0.0125
vn -0.9928 0.1156 -0.0311
vn -0.9905 0.1376 -0.0078
vn -0.9889 -0.1487 -0.0033
vn 0.9897 0.1428 -0.0032
vn 0.9363 -0.2416 -0.2550
vn 0.0000 0.9993 -0.0365
vn 0.9902 -0.1387 -0.0162
vn 0.9994 0.0351 -0.0015
vn 0.8590 -0.0648 -0.5079
vn -0.9484 -0.1445 0.2823
vn 0.0229 -0.9978 0.0614
vn -0.0460 0.9913 -0.1236
vn -0.4825 0.1046 -0.8696
vn -0.0605 0.9975 0.0370
vn -0.0262 -0.9995 0.0160
vn 0.0317 -0.9993 -0.0205
vn 0.0000 -0.8771 -0.4803
vn 0.6274 0.0905 -0.7735
vn -0.3459 0.1341 0.9286
vn -0.9986 -0.0295 -0.0432
vn 0.7419 0.1137 0.6608
vn -0.6327 -0.1323 0.7630
vn -0.9558 0.0000 -0.2941
vn 0.5942 0.0002 0.8043
vn -0.1163 -0.9824 0.1465
vn -0.9396 -0.1414 0.3118
vn -0.6893 -0.0069 -0.7244
vn 0.0132 0.9998 -0.0166
vn -0.0541 0.9879 -0.1455
vn -0.0329 0.9992 0.0216
vn 0.7479 0.1226 0.6524
vn 0.2274 -0.9614 0.1549
vn -0.0241 0.9950 0.0969
vn -0.8252 0.1233 -0.5512
vn 0.0018 -1.0000 -0.0074
vn 0.9312 0.0000 0.3646
vn 0.5271 -0.0196 -0.8496
vn 0.0000 -0.9425 -0.3342
vn -0.5614 0.0105 0.8275
vn -0.4359 0.0380 -0.8992
vn -0.4715 -0.8604 -0.1936
vn -0.0159 0.9999 -0.0065
vn 0.6992 0.0127 -0.7148
vn -0.0684 -0.9868 0.1467
vn 0.4097 0.0345 0.9116
vn 0.0123 0.9996 -0.0264
usemtl None
s off
f 2/1/1 3/2/1 1/3/1
f 10/4/2 119/5/2 9/6/2
f 8/7/3 5/8/3 7/9/3
f 6/10/4 24/11/4 19/12/4
f 7/9/5 14/13/5 9/6/5
f 4/14/6 16/15/6 11/16/6
f 8/7/7 15/17/7 6/10/7
f 11/16/8 15/17/8 12/18/8
f 3/19/9 13/20/9 1/21/9
f 10/4/2 14/13/2 13/20/2
f 6/10/10 20/22/10 5/8/10
f 2/23/11 22/24/11 16/15/11
f 3/19/12 120/25/12 10/4/12
f 12/18/8 121/26/8 11/16/8
f 22/24/13 26/27/13 30/28/13
f 21/29/2 31/30/2 23/31/2
f 24/11/8 30/28/8 32/32/8
f 1/21/14 23/31/14 17/33/14
f 1/3/15 18/34/15 2/1/15
f 5/8/16 21/29/16 14/13/16
f 15/17/8 22/24/8 24/11/8
f 14/13/2 23/31/2 13/20/2
f 25/35/17 34/36/17 26/37/17
f 28/38/18 37/39/18 29/40/18
f 31/30/19 33/41/19 25/42/19
f 19/12/20 28/38/20 20/22/20
f 24/11/21 27/43/21 19/12/21
f 23/31/22 25/42/22 17/33/22
f 21/29/23 28/38/23 29/40/23
f 17/44/24 26/37/24 18/34/24
f 37/39/25 44/45/25 45/46/25
f 39/47/26 41/48/26 33/41/26
f 40/49/27 43/50/27 35/51/27
f 30/28/8 40/49/8 32/32/8
f 29/40/2 39/47/2 31/30/2
f 26/27/28 38/52/28 30/28/28
f 27/43/29 36/53/29 28/38/29
f 32/32/30 35/51/30 27/43/30
f 46/54/31 54/55/31 55/56/31
f 44/45/32 61/57/32 62/58/32
f 45/46/33 57/59/33 47/60/33
f 33/61/34 42/62/34 34/36/34
f 40/49/8 46/54/8 48/63/8
f 37/39/2 47/60/2 39/47/2
f 38/52/35 42/64/35 46/54/35
f 35/51/36 44/45/36 36/53/36
f 49/65/37 100/66/37 50/67/37
f 50/67/38 43/50/38 49/65/38
f 49/68/2 35/69/2 27/70/2
f 36/71/8 44/72/8 50/73/8
f 51/74/39 65/75/39 67/76/39
f 52/77/40 41/78/40 51/79/40
f 52/80/8 34/81/8 26/82/8
f 25/83/8 17/84/8 51/74/8
f 54/55/41 75/85/41 55/56/41
f 47/60/42 53/86/42 41/48/42
f 41/87/43 54/88/43 42/62/43
f 46/89/44 56/90/44 47/91/44
f 61/57/45 84/92/45 81/93/45
f 48/94/46 58/95/46 45/96/46
f 47/91/47 60/97/47 46/89/47
f 48/63/48 60/98/48 59/99/48
f 57/100/49 80/101/49 60/97/49
f 48/94/50 63/102/50 64/103/50
f 43/50/51 64/104/51 61/57/51
f 44/45/52 63/105/52 45/46/52
f 68/106/53 70/107/53 66/108/53
f 51/79/54 68/109/54 52/77/54
f 52/80/55 66/108/55 18/110/55
f 18/34/56 65/111/56 17/44/56
f 70/112/57 71/113/57 69/114/57
f 66/115/58 69/114/58 65/111/58
f 67/76/59 69/116/59 71/117/59
f 67/118/60 72/119/60 68/109/60
f 82/120/61 95/121/61 83/122/61
f 73/123/62 88/124/62 85/125/62
f 80/126/63 91/127/63 79/128/63
f 58/129/64 77/130/64 57/59/64
f 63/102/65 84/131/65 64/103/65
f 53/86/66 76/132/66 73/123/66
f 60/98/67 79/128/67 59/99/67
f 61/57/68 82/120/68 62/58/68
f 56/90/69 75/133/69 76/134/69
f 59/135/70 78/136/70 58/95/70
f 62/58/71 83/122/71 63/105/71
f 53/137/72 74/138/72 54/88/72
f 87/139/73 85/140/73 88/141/73
f 91/142/74 89/143/74 90/144/74
f 94/145/75 96/146/75 95/147/75
f 79/148/76 90/144/76 78/136/76
f 76/134/77 87/139/77 88/141/77
f 81/93/78 96/149/78 93/150/78
f 74/138/79 85/151/79 86/152/79
f 77/153/80 92/154/80 80/101/80
f 78/155/81 89/156/81 77/130/81
f 83/157/82 96/146/82 84/131/82
f 74/158/83 87/159/83 75/85/83
f 82/120/84 93/150/84 94/145/84
f 98/160/85 99/161/85 97/162/85
f 20/22/86 97/162/86 19/12/86
f 49/68/2 97/163/2 99/164/2
f 50/73/8 98/165/8 20/166/8
f 99/161/87 102/167/87 100/66/87
f 102/168/88 104/169/88 44/72/88
f 43/170/2 99/164/2 101/171/2
f 44/72/2 100/172/2 102/168/2
f 105/173/89 107/174/89 109/175/89
f 44/45/90 103/176/90 43/50/90
f 101/177/91 106/178/91 102/167/91
f 101/171/92 103/179/92 105/173/92
f 109/175/93 111/180/93 113/181/93
f 104/182/94 107/183/94 103/176/94
f 106/184/95 108/185/95 104/169/95
f 105/186/96 110/187/96 106/178/96
f 111/188/97 114/189/97 113/190/97
f 108/191/98 111/188/98 107/183/98
f 110/192/99 112/193/99 108/185/99
f 109/194/100 114/189/100 110/187/100
f 118/195/101 130/196/101 122/197/101
f 117/198/102 127/199/102 125/200/102
f 116/201/103 129/202/103 124/203/103
f 8/7/104 122/197/104 12/18/104
f 11/16/105 116/201/105 4/14/105
f 4/204/17 115/205/17 3/2/17
f 9/6/106 117/198/106 7/9/106
f 7/9/29 118/195/29 8/7/29
f 130/206/107 125/200/107 127/207/107
f 124/208/107 128/209/107 123/210/107
f 129/211/107 127/207/107 128/209/107
f 116/212/108 123/210/108 115/205/108
f 121/26/109 130/196/109 129/202/109
f 120/25/110 127/199/110 119/5/110
f 117/198/111 126/213/111 118/195/111
f 115/214/112 128/215/112 120/25/112
f 2/1/1 4/204/1 3/2/1
f 10/4/2 120/25/2 119/5/2
f 8/7/3 6/10/3 5/8/3
f 6/10/113 15/17/113 24/11/113
f 7/9/114 5/8/114 14/13/114
f 4/14/115 2/23/115 16/15/115
f 8/7/116 12/18/116 15/17/116
f 11/16/8 16/15/8 15/17/8
f 3/19/117 10/4/117 13/20/117
f 10/4/2 9/6/2 14/13/2
f 6/10/10 19/12/10 20/22/10
f 2/23/118 18/216/118 22/24/118
f 3/19/12 115/214/12 120/25/12
f 12/18/8 122/197/8 121/26/8
f 22/24/119 18/216/119 26/27/119
f 21/29/2 29/40/2 31/30/2
f 24/11/8 22/24/8 30/28/8
f 1/21/120 13/20/120 23/31/120
f 1/3/15 17/44/15 18/34/15
f 5/8/121 20/22/121 21/29/121
f 15/17/8 16/15/8 22/24/8
f 14/13/2 21/29/2 23/31/2
f 25/35/17 33/61/17 34/36/17
f 28/38/18 36/53/18 37/39/18
f 31/30/19 39/47/19 33/41/19
f 19/12/20 27/43/20 28/38/20
f 24/11/122 32/32/122 27/43/122
f 23/31/123 31/30/123 25/42/123
f 21/29/124 20/22/124 28/38/124
f 17/44/24 25/35/24 26/37/24
f 37/39/125 36/53/125 44/45/125
f 39/47/126 47/60/126 41/48/126
f 40/49/127 48/63/127 43/50/127
f 30/28/8 38/52/8 40/49/8
f 29/40/2 37/39/2 39/47/2
f 26/27/28 34/217/28 38/52/28
f 27/43/29 35/51/29 36/53/29
f 32/32/30 40/49/30 35/51/30
f 46/54/128 42/64/128 54/55/128
f 44/45/129 43/50/129 61/57/129
f 45/46/33 58/129/33 57/59/33
f 33/61/34 41/87/34 42/62/34
f 40/49/8 38/52/8 46/54/8
f 37/39/2 45/46/2 47/60/2
f 38/52/130 34/217/130 42/64/130
f 35/51/36 43/50/36 44/45/36
f 49/65/37 99/161/37 100/66/37
f 50/67/38 44/45/38 43/50/38
f 27/70/2 19/218/2 49/68/2
f 49/68/2 43/170/2 35/69/2
f 20/166/8 28/219/8 50/73/8
f 28/219/8 36/71/8 50/73/8
f 51/74/131 17/84/131 65/75/131
f 52/77/40 42/220/40 41/78/40
f 26/82/8 18/110/8 52/80/8
f 52/80/8 42/221/8 34/81/8
f 51/74/8 41/222/8 33/223/8
f 33/223/8 25/83/8 51/74/8
f 54/55/132 74/158/132 75/85/132
f 47/60/133 56/224/133 53/86/133
f 41/87/134 53/137/134 54/88/134
f 46/89/135 55/225/135 56/90/135
f 61/57/136 64/104/136 84/92/136
f 48/94/137 59/135/137 58/95/137
f 47/91/138 57/100/138 60/97/138
f 48/63/48 46/54/48 60/98/48
f 57/100/139 77/153/139 80/101/139
f 48/94/140 45/96/140 63/102/140
f 43/50/141 48/63/141 64/104/141
f 44/45/142 62/58/142 63/105/142
f 68/106/53 72/226/53 70/107/53
f 51/79/54 67/118/54 68/109/54
f 52/80/143 68/106/143 66/108/143
f 18/34/56 66/115/56 65/111/56
f 70/112/57 72/119/57 71/113/57
f 66/115/58 70/112/58 69/114/58
f 67/76/59 65/75/59 69/116/59
f 67/118/60 71/113/60 72/119/60
f 82/120/144 94/145/144 95/121/144
f 73/123/145 76/132/145 88/124/145
f 80/126/146 92/227/146 91/127/146
f 58/129/147 78/155/147 77/130/147
f 63/102/148 83/157/148 84/131/148
f 53/86/149 56/224/149 76/132/149
f 60/98/150 80/126/150 79/128/150
f 61/57/151 81/93/151 82/120/151
f 56/90/152 55/225/152 75/133/152
f 59/135/153 79/148/153 78/136/153
f 62/58/154 82/120/154 83/122/154
f 53/137/155 73/228/155 74/138/155
f 87/139/73 86/229/73 85/140/73
f 91/142/74 92/154/74 89/143/74
f 94/145/75 93/150/75 96/146/75
f 79/148/156 91/142/156 90/144/156
f 76/134/77 75/133/77 87/139/77
f 81/93/157 84/92/157 96/149/157
f 74/138/79 73/228/79 85/151/79
f 77/153/158 89/143/158 92/154/158
f 78/155/159 90/230/159 89/156/159
f 83/157/82 95/147/82 96/146/82
f 74/158/160 86/231/160 87/159/160
f 82/120/84 81/93/84 93/150/84
f 98/160/85 100/66/85 99/161/85
f 20/22/161 98/160/161 97/162/161
f 49/68/2 19/218/2 97/163/2
f 50/73/8 100/172/8 98/165/8
f 99/161/87 101/177/87 102/167/87
f 102/168/162 106/184/162 104/169/162
f 43/170/2 49/68/2 99/164/2
f 44/72/2 50/73/2 100/172/2
f 105/173/163 103/179/163 107/174/163
f 44/45/164 104/182/164 103/176/164
f 101/177/165 105/186/165 106/178/165
f 101/171/166 43/170/166 103/179/166
f 109/175/93 107/174/93 111/180/93
f 104/182/167 108/191/167 107/183/167
f 106/184/168 110/192/168 108/185/168
f 105/186/169 109/194/169 110/187/169
f 111/188/97 112/232/97 114/189/97
f 108/191/98 112/232/98 111/188/98
f 110/192/99 114/233/99 112/193/99
f 109/194/100 113/190/100 114/189/100
f 118/195/101 126/213/101 130/196/101
f 117/198/102 119/5/102 127/199/102
f 116/201/103 121/26/103 129/202/103
f 8/7/104 118/195/104 122/197/104
f 11/16/105 121/26/105 116/201/105
f 4/204/17 116/212/17 115/205/17
f 9/6/106 119/5/106 117/198/106
f 7/9/29 117/198/29 118/195/29
f 130/206/107 126/213/107 125/200/107
f 124/208/107 129/211/107 128/209/107
f 129/211/107 130/206/107 127/207/107
f 116/212/108 124/208/108 123/210/108
f 121/26/109 122/197/109 130/196/109
f 120/25/110 128/215/110 127/199/110
f 117/198/111 125/200/111 126/213/111
f 115/214/112 123/234/112 128/215/112
