# Blender v2.92.0 OBJ File: ''
# www.blender.org
mtllib untitled.mtl
o Cube_Cube.001
v -1.000000 -1.000000 1.000000
v -1.000000 1.000000 1.000000
v -1.000000 -1.000000 -1.000000
v -2.082636 2.437098 -1.590152
v 1.000000 -1.000000 1.000000
v 0.747821 1.695451 0.387722
v 1.000000 -1.000000 -1.000000
v 1.620737 -0.018535 -1.469072
vt 0.625000 0.000000
vt 0.375000 0.250000
vt 0.375000 0.000000
vt 0.625000 0.250000
vt 0.375000 0.500000
vt 0.625000 0.500000
vt 0.375000 0.750000
vt 0.625000 0.750000
vt 0.375000 1.000000
vt 0.125000 0.750000
vt 0.125000 0.500000
vt 0.875000 0.500000
vt 0.625000 1.000000
vt 0.875000 0.750000
vn -1.0000 0.0000 0.0000
vn 0.0000 -0.1692 -0.9856
vn 0.8452 -0.5345 0.0000
vn 0.0000 0.2215 0.9752
vn 0.0000 -1.0000 0.0000
vn 0.5049 0.7395 -0.4452
vn -0.9347 -0.2513 0.2513
vn -0.1856 -0.3257 -0.9271
vn 0.9415 0.1559 0.2987
vn 0.3306 0.0000 0.9438
vn -0.1486 0.8371 0.5265
usemtl None
s off
f 2/1/1 3/2/1 1/3/1
f 4/4/2 7/5/2 3/2/2
f 8/6/3 5/7/3 7/5/3
f 6/8/4 1/9/4 5/7/4
f 7/5/5 1/10/5 3/11/5
f 4/12/6 6/8/6 8/6/6
f 2/1/7 4/4/7 3/2/7
f 4/4/8 8/6/8 7/5/8
f 8/6/9 6/8/9 5/7/9
f 6/8/10 2/13/10 1/9/10
f 7/5/5 5/7/5 1/10/5
f 4/12/11 2/14/11 6/8/11
